<?xml version="1.0" encoding="UTF-8"?>
<svg version="1.1" xmlns="http://www.w3.org/2000/svg" width="718" height="712">
<path d="M0 0 C0.51224121 0.42055664 1.02448242 0.84111328 1.55224609 1.27441406 C9.21863435 7.57155618 16.4178294 14.23752685 23.4375 21.25 C24.55523804 22.36652954 24.55523804 22.36652954 25.69555664 23.50561523 C40.03963749 37.99456953 52.62826979 54.10238434 64 71 C64.48291504 71.71430176 64.96583008 72.42860352 65.46337891 73.16455078 C115.16524414 147.36055728 132.99479098 240.34621036 116.25 327.8125 C105.45231694 381.93567575 82.70403874 432.93139807 48 476 C47.27683594 476.91523437 46.55367187 477.83046875 45.80859375 478.7734375 C31.50085604 496.63891322 15.13575184 514.0170725 -3 528 C-4.08893982 528.89741094 -5.17466811 529.79872765 -6.2578125 530.703125 C-26.77913319 547.7231509 -49.92146958 561.62510431 -74 573 C-74.7532959 573.35803711 -75.5065918 573.71607422 -76.28271484 574.08496094 C-112.58556675 591.22198786 -151.12678443 600.89212973 -191 605 C-192.25941406 605.13277344 -193.51882813 605.26554688 -194.81640625 605.40234375 C-283.48537903 612.90273195 -373.28891525 582.46370339 -441.13085938 525.59619141 C-444.94214503 522.34146496 -448.62160382 518.95478997 -452.28125 515.53125 C-454.76927988 513.21480839 -457.31082129 510.98116849 -459.875 508.75 C-470.20178901 499.47085625 -479.43791193 488.90439682 -488 478 C-488.72832031 477.10152344 -489.45664062 476.20304688 -490.20703125 475.27734375 C-503.11901301 459.02494879 -514.43243481 441.40998189 -524 423 C-524.34434082 422.34692871 -524.68868164 421.69385742 -525.04345703 421.02099609 C-527.47261616 416.39805698 -529.77704338 411.72540778 -532 407 C-532.34353516 406.27135742 -532.68707031 405.54271484 -533.04101562 404.79199219 C-544.66913607 379.76070914 -552.98847771 353.11510371 -558 326 C-558.19674316 324.95924316 -558.39348633 323.91848633 -558.59619141 322.84619141 C-568.45609529 269.44322423 -564.67719643 213.90593043 -549 162 C-548.74524902 161.15195801 -548.49049805 160.30391602 -548.22802734 159.43017578 C-533.829025 112.26103016 -508.70734445 68.79708914 -475.33203125 32.55078125 C-473.36500972 30.39924849 -471.45446871 28.21708027 -469.5625 26 C-462.65386712 18.06484856 -455.02551829 10.79082317 -447 4 C-446.10410156 3.21496094 -445.20820313 2.42992188 -444.28515625 1.62109375 C-370.71317072 -62.45042637 -270.4559977 -90.82344468 0 0 Z M-289 -37 C-305.15056368 -15.3931648 -301.45039342 24.67289856 -301.44024777 50.14934111 C-301.44222126 54.5130669 -301.46267384 58.87670668 -301.48143005 63.24038696 C-301.52200033 73.35022005 -301.54091575 83.46003517 -301.55760193 93.56993103 C-301.5801083 106.45907167 -301.61389288 119.34816216 -301.66480106 132.23722231 C-301.68129234 136.55785649 -301.69340489 140.87841033 -301.69503975 145.19907761 C-301.71800842 204.04289499 -301.71800842 204.04289499 -316.375 223.4375 C-323.27098504 230.16929492 -330.55625358 232.70968836 -340 234 C-339.99815641 232.96045418 -339.99631283 231.92090836 -339.99441338 230.84986115 C-339.94984524 205.45534868 -339.91706873 180.06084134 -339.89637566 154.66629791 C-339.88610048 142.38526512 -339.87211278 130.1042583 -339.84912109 117.82324219 C-339.82907133 107.10846548 -339.81625632 96.39370759 -339.81182301 85.67891264 C-339.80923508 80.01521185 -339.80323247 74.35156487 -339.78853989 68.68788147 C-339.60100208 27.62785436 -339.60100208 27.62785436 -345 -13 C-351.46047203 -9.60758042 -357.39470437 -5.78633607 -363.25 -1.4375 C-364.07773926 -0.82398682 -364.90547852 -0.21047363 -365.75830078 0.42163086 C-372.38260999 5.40175849 -378.55122614 10.69096744 -384.46289062 16.49365234 C-386.06024911 18.05904337 -387.67769131 19.60175101 -389.296875 21.14453125 C-427.04598447 57.52275492 -447.89201089 108.7002832 -448.99511719 160.82617188 C-449.04178516 191.16035191 -442.31816557 220.78435306 -429 248 C-428.47599609 249.07677002 -428.47599609 249.07677002 -427.94140625 250.17529297 C-417.96513045 270.42475754 -404.4288402 287.62841397 -389 304 C-388.31035156 304.7321875 -387.62070312 305.464375 -386.91015625 306.21875 C-374.1488613 319.37149571 -358.13957792 331.23994915 -342 340 C-341.34 340 -340.68 340 -340 340 C-339.98541748 339.29504395 -339.97083496 338.59008789 -339.95581055 337.86376953 C-339.88055803 334.61700886 -339.78415626 331.37119124 -339.6875 328.125 C-339.66494141 327.01640625 -339.64238281 325.9078125 -339.61914062 324.765625 C-339.17977159 311.18512765 -335.2588867 299.11337932 -325.11328125 289.59765625 C-315.87160639 282.61088173 -305.56172625 279.81244279 -294.19140625 279.5078125 C-292.47377435 279.44483062 -290.75616441 279.38124784 -289.03857422 279.31713867 C-288.14555603 279.28639252 -287.25253784 279.25564636 -286.3324585 279.22396851 C-258.52384629 278.23038799 -231.09028174 275.6663484 -204 269 C-203.12553223 268.78649902 -202.25106445 268.57299805 -201.35009766 268.35302734 C-159.28386183 257.82270583 -120.23858782 236.73497992 -96.6875 199.375 C-95.44016423 197.26061376 -94.20988546 195.13603672 -93 193 C-92.47921875 192.09507812 -91.9584375 191.19015625 -91.421875 190.2578125 C-70.44128487 151.27808451 -70.24044378 100.38938564 -82.671875 58.74951172 C-94.02356799 23.31672001 -119.51532059 -3.31707594 -152.05566406 -20.23583984 C-175.15407048 -31.90868416 -199.60871733 -38.51482452 -225 -43 C-225.72574219 -43.13277344 -226.45148438 -43.26554687 -227.19921875 -43.40234375 C-246.79729137 -46.94033252 -270.78059804 -45.87880994 -289 -37 Z M-352.93359375 -33.45703125 C-353.51889359 -33.17759171 -354.10419342 -32.89815216 -354.70722961 -32.61024475 C-356.62335151 -31.68956866 -358.53081313 -30.75254566 -360.4375 -29.8125 C-361.09004761 -29.49388 -361.74259521 -29.17526001 -362.41491699 -28.84698486 C-388.6595529 -16.01117689 -413.26524346 0.15297056 -434.79296875 19.9765625 C-436.72130517 21.74448863 -438.68847978 23.43846046 -440.6875 25.125 C-450.16026975 33.40404674 -459.12559537 42.46216035 -466.90625 52.34765625 C-469.13671932 55.17319481 -471.46926946 57.89246692 -473.8125 60.625 C-526.47166268 123.94621881 -550.38536999 210.40148696 -543.05249023 291.8894043 C-536.54335591 355.0421918 -513.41533295 415.7080881 -473 465 C-472.57444824 465.52029785 -472.14889648 466.0405957 -471.71044922 466.57666016 C-416.21247337 534.13325562 -337.28292241 576.60542954 -250.13208008 585.28564453 C-240.57174637 586.12612995 -231.02804924 586.24313456 -221.4375 586.25 C-220.15584457 586.25101212 -220.15584457 586.25101212 -218.84829712 586.25204468 C-172.35475626 586.19415296 -126.01379343 576.0724878 -84 556 C-83.32952637 555.68063477 -82.65905273 555.36126953 -81.96826172 555.03222656 C-65.15752897 546.96078042 -49.10735472 537.95252486 -34 527 C-33.44586426 526.59894043 -32.89172852 526.19788086 -32.32080078 525.78466797 C-21.65568445 518.0196291 -11.57771995 509.67580543 -1.921875 500.69921875 C0.78878029 498.19512409 3.5427361 495.75073155 6.3125 493.3125 C9.87947858 490.10845724 13.09460386 486.79513356 16.1796875 483.12890625 C18.25573771 480.70090762 20.439328 478.39224363 22.625 476.0625 C63.76807113 430.75540203 89.33727823 372.01748695 99 312 C99.24556641 310.55512207 99.24556641 310.55512207 99.49609375 309.08105469 C109.78820609 246.5841163 98.1186082 179.80095037 71 123 C70.62681641 122.20062012 70.25363281 121.40124023 69.86914062 120.57763672 C57.53870371 94.22424594 41.060354 70.86334724 22 49 C21.31164062 48.19949219 20.62328125 47.39898437 19.9140625 46.57421875 C10.02487321 35.30205855 -0.60854495 24.24540854 -12.4453125 15.0078125 C-14.1666145 13.65498493 -15.8493677 12.25181089 -17.4921875 10.8046875 C-36.96373321 -6.29640917 -60.39709253 -19.52540424 -83.625 -30.8125 C-84.96824341 -31.47161377 -84.96824341 -31.47161377 -86.33862305 -32.14404297 C-87.58252808 -32.73209717 -87.58252808 -32.73209717 -88.8515625 -33.33203125 C-89.58197754 -33.67983643 -90.31239258 -34.0276416 -91.06494141 -34.38598633 C-93.18136918 -35.26640238 -93.18136918 -35.26640238 -96 -34 C-95.52804199 -33.71914551 -95.05608398 -33.43829102 -94.56982422 -33.14892578 C-74.67495653 -21.26599657 -56.83321506 -7.95868809 -40 8 C-39.24589844 8.7115625 -38.49179687 9.423125 -37.71484375 10.15625 C-23.77994009 23.67559988 -12.55728098 40.1798997 -3 57 C-2.66403809 57.57621094 -2.32807617 58.15242188 -1.98193359 58.74609375 C13.96369396 86.17475003 23.90511297 119.6838322 24.23828125 151.49609375 C24.24812042 152.27854965 24.25795959 153.06100555 24.26809692 153.86717224 C24.84893304 212.12676241 6.79215894 265.27628283 -32.859375 308.63671875 C-34.72852907 310.70029213 -36.52323362 312.80514613 -38.3125 314.9375 C-78.75250998 360.99673688 -144.42421414 385.33782914 -204.1875 389.6875 C-268.1383388 392.79757119 -334.76292177 375.34226497 -384 333 C-385.09167322 332.09021544 -386.18419011 331.18144271 -387.27734375 330.2734375 C-432.44858132 292.48607914 -460.15696833 239.43773661 -466.46484375 180.97265625 C-466.74326421 177.64305265 -466.90952293 174.33978404 -467 171 C-467.03996094 169.73027344 -467.07992187 168.46054688 -467.12109375 167.15234375 C-468.36237197 108.04352113 -444.62913862 52.38614797 -404 10 C-403.49742676 9.47019531 -402.99485352 8.94039062 -402.47705078 8.39453125 C-394.56414603 0.08955674 -386.20329813 -7.16451569 -377 -14 C-376.44763672 -14.41846191 -375.89527344 -14.83692383 -375.32617188 -15.26806641 C-365.41590926 -22.76511572 -354.83582998 -28.94069565 -344 -35 C-348.00655802 -36.33551934 -349.17133904 -35.26591087 -352.93359375 -33.45703125 Z M-76 2 C-75.236875 2.86625 -74.47375 3.7325 -73.6875 4.625 C-42.43029265 41.39818512 -30.84522094 83.9205886 -34.51538086 131.90649414 C-38.02260046 171.60997185 -53.89899736 207.28597242 -84.16015625 233.72265625 C-115.05328885 258.49665392 -152.54563539 271.44214532 -191 279 C-189.64980284 283.59759445 -187.70968567 287.46057953 -185.1875 291.5 C-184.37275635 292.83145555 -183.55901568 294.16352517 -182.74609375 295.49609375 C-182.30507324 296.21651855 -181.86405273 296.93694336 -181.40966797 297.67919922 C-178.81585185 301.9495172 -176.28664407 306.25806447 -173.75 310.5625 C-172.63546075 312.45054686 -171.52087682 314.33856734 -170.40625 316.2265625 C-168.70169714 319.11548571 -166.99733325 322.00452035 -165.29296875 324.89355469 C-158.57014413 336.28758332 -151.82990546 347.66976924 -145 359 C-138.86339758 358.39674078 -133.50578073 355.98499897 -127.875 353.625 C-126.81764648 353.18236816 -125.76029297 352.73973633 -124.67089844 352.28369141 C-101.6906093 342.45419142 -80.63326913 329.02772746 -62.2578125 312.0703125 C-60.23524746 310.21571134 -58.16516016 308.44964839 -56.0625 306.6875 C-22.21523687 276.88572649 -1.21599872 232.1827823 5 188 C5.0942627 187.36352539 5.18852539 186.72705078 5.28564453 186.07128906 C6.28345464 178.49935619 6.24366808 170.8743852 6.25 163.25 C6.25067474 162.51834625 6.25134949 161.7866925 6.25204468 161.03286743 C6.23419786 148.80812905 5.50916927 136.99750105 3 125 C2.74259033 123.75935791 2.74259033 123.75935791 2.47998047 122.49365234 C-6.0779506 82.64076692 -26.13344102 49.3094876 -54 20 C-54.91652344 19.02160156 -54.91652344 19.02160156 -55.8515625 18.0234375 C-61.64377928 12.01161061 -68.30653931 5.40530227 -76 2 Z M-301 288 C-301 311.1 -301 334.2 -301 358 C-293.53724252 360.98510299 -286.94656126 363.25272054 -279.25 365.0625 C-278.16017822 365.31926514 -277.07035645 365.57603027 -275.94750977 365.84057617 C-243.8354598 373.17614711 -211.39344511 373.53228547 -179 368 C-186.05540669 352.21816925 -195.8712676 338.26139042 -208 326 C-208.639375 325.30003906 -209.27875 324.60007812 -209.9375 323.87890625 C-230.29012498 302.07878854 -260.74887449 290.47849302 -290 288 C-293.63 288 -297.26 288 -301 288 Z " fill="#FBF9F8" transform="translate(587,81)"/>
</svg>
